<?xml version="1.0" encoding="utf-8" standalone="no"?>
<!DOCTYPE svg PUBLIC "-//W3C//DTD SVG 1.1//EN"
  "http://www.w3.org/Graphics/SVG/1.1/DTD/svg11.dtd">
<svg xmlns:xlink="http://www.w3.org/1999/xlink" width="664.131078pt" height="319.22577pt" viewBox="0 0 664.131078 319.22577" xmlns="http://www.w3.org/2000/svg" version="1.1">
 <metadata>
  <rdf:RDF xmlns:dc="http://purl.org/dc/elements/1.1/" xmlns:cc="http://creativecommons.org/ns#" xmlns:rdf="http://www.w3.org/1999/02/22-rdf-syntax-ns#">
   <cc:Work>
    <dc:type rdf:resource="http://purl.org/dc/dcmitype/StillImage"/>
    <dc:date>2025-07-28T16:02:36.326756</dc:date>
    <dc:format>image/svg+xml</dc:format>
    <dc:creator>
     <cc:Agent>
      <dc:title>Matplotlib v3.8.4, https://matplotlib.org/</dc:title>
     </cc:Agent>
    </dc:creator>
   </cc:Work>
  </rdf:RDF>
 </metadata>
 <defs>
  <style type="text/css">*{stroke-linejoin: round; stroke-linecap: butt}</style>
 </defs>
 <g id="figure_1">
  <g id="patch_1">
   <path d="M 0 319.22577 
L 664.131078 319.22577 
L 664.131078 0 
L 0 0 
z
" style="fill: #ffffff"/>
  </g>
  <g id="axes_1">
   <g id="patch_2">
    <path d="M 43.710547 278.232996 
L 400.830547 278.232996 
L 400.830547 12.120996 
L 43.710547 12.120996 
z
" style="fill: #ffffff"/>
   </g>
   <g id="matplotlib.axis_1">
    <g id="xtick_1">
     <g id="line2d_1">
      <path d="M 43.710547 278.232996 
L 43.710547 12.120996 
" clip-path="url(#pe841f5357d)" style="fill: none; stroke: #cccccc; stroke-linecap: round"/>
     </g>
     <g id="text_1">
      <!-- 2006 -->
      <g style="fill: #262626" transform="translate(28.417969 291.574988) scale(0.1375 -0.1375)">
       <defs>
        <path id="ArialMT-32" d="M 3222 541 
L 3222 0 
L 194 0 
Q 188 203 259 391 
Q 375 700 629 1000 
Q 884 1300 1366 1694 
Q 2113 2306 2375 2664 
Q 2638 3022 2638 3341 
Q 2638 3675 2398 3904 
Q 2159 4134 1775 4134 
Q 1369 4134 1125 3890 
Q 881 3647 878 3216 
L 300 3275 
Q 359 3922 746 4261 
Q 1134 4600 1788 4600 
Q 2447 4600 2831 4234 
Q 3216 3869 3216 3328 
Q 3216 3053 3103 2787 
Q 2991 2522 2730 2228 
Q 2469 1934 1863 1422 
Q 1356 997 1212 845 
Q 1069 694 975 541 
L 3222 541 
z
" transform="scale(0.015625)"/>
        <path id="ArialMT-30" d="M 266 2259 
Q 266 3072 433 3567 
Q 600 4063 929 4331 
Q 1259 4600 1759 4600 
Q 2128 4600 2406 4451 
Q 2684 4303 2865 4023 
Q 3047 3744 3150 3342 
Q 3253 2941 3253 2259 
Q 3253 1453 3087 958 
Q 2922 463 2592 192 
Q 2263 -78 1759 -78 
Q 1097 -78 719 397 
Q 266 969 266 2259 
z
M 844 2259 
Q 844 1131 1108 757 
Q 1372 384 1759 384 
Q 2147 384 2411 759 
Q 2675 1134 2675 2259 
Q 2675 3391 2411 3762 
Q 2147 4134 1753 4134 
Q 1366 4134 1134 3806 
Q 844 3388 844 2259 
z
" transform="scale(0.015625)"/>
        <path id="ArialMT-36" d="M 3184 3459 
L 2625 3416 
Q 2550 3747 2413 3897 
Q 2184 4138 1850 4138 
Q 1581 4138 1378 3988 
Q 1113 3794 959 3422 
Q 806 3050 800 2363 
Q 1003 2672 1297 2822 
Q 1591 2972 1913 2972 
Q 2475 2972 2870 2558 
Q 3266 2144 3266 1488 
Q 3266 1056 3080 686 
Q 2894 316 2569 119 
Q 2244 -78 1831 -78 
Q 1128 -78 684 439 
Q 241 956 241 2144 
Q 241 3472 731 4075 
Q 1159 4600 1884 4600 
Q 2425 4600 2770 4297 
Q 3116 3994 3184 3459 
z
M 888 1484 
Q 888 1194 1011 928 
Q 1134 663 1356 523 
Q 1578 384 1822 384 
Q 2178 384 2434 671 
Q 2691 959 2691 1453 
Q 2691 1928 2437 2201 
Q 2184 2475 1800 2475 
Q 1419 2475 1153 2201 
Q 888 1928 888 1484 
z
" transform="scale(0.015625)"/>
       </defs>
       <use xlink:href="#ArialMT-32"/>
       <use xlink:href="#ArialMT-30" x="55.615234"/>
       <use xlink:href="#ArialMT-30" x="111.230469"/>
       <use xlink:href="#ArialMT-36" x="166.845703"/>
      </g>
     </g>
    </g>
    <g id="xtick_2">
     <g id="line2d_2">
      <path d="M 108.641456 278.232996 
L 108.641456 12.120996 
" clip-path="url(#pe841f5357d)" style="fill: none; stroke: #cccccc; stroke-linecap: round"/>
     </g>
     <g id="text_2">
      <!-- 2008 -->
      <g style="fill: #262626" transform="translate(93.348878 291.574988) scale(0.1375 -0.1375)">
       <defs>
        <path id="ArialMT-38" d="M 1131 2484 
Q 781 2613 612 2850 
Q 444 3088 444 3419 
Q 444 3919 803 4259 
Q 1163 4600 1759 4600 
Q 2359 4600 2725 4251 
Q 3091 3903 3091 3403 
Q 3091 3084 2923 2848 
Q 2756 2613 2416 2484 
Q 2838 2347 3058 2040 
Q 3278 1734 3278 1309 
Q 3278 722 2862 322 
Q 2447 -78 1769 -78 
Q 1091 -78 675 323 
Q 259 725 259 1325 
Q 259 1772 486 2073 
Q 713 2375 1131 2484 
z
M 1019 3438 
Q 1019 3113 1228 2906 
Q 1438 2700 1772 2700 
Q 2097 2700 2305 2904 
Q 2513 3109 2513 3406 
Q 2513 3716 2298 3927 
Q 2084 4138 1766 4138 
Q 1444 4138 1231 3931 
Q 1019 3725 1019 3438 
z
M 838 1322 
Q 838 1081 952 856 
Q 1066 631 1291 507 
Q 1516 384 1775 384 
Q 2178 384 2440 643 
Q 2703 903 2703 1303 
Q 2703 1709 2433 1975 
Q 2163 2241 1756 2241 
Q 1359 2241 1098 1978 
Q 838 1716 838 1322 
z
" transform="scale(0.015625)"/>
       </defs>
       <use xlink:href="#ArialMT-32"/>
       <use xlink:href="#ArialMT-30" x="55.615234"/>
       <use xlink:href="#ArialMT-30" x="111.230469"/>
       <use xlink:href="#ArialMT-38" x="166.845703"/>
      </g>
     </g>
    </g>
    <g id="xtick_3">
     <g id="line2d_3">
      <path d="M 173.572365 278.232996 
L 173.572365 12.120996 
" clip-path="url(#pe841f5357d)" style="fill: none; stroke: #cccccc; stroke-linecap: round"/>
     </g>
     <g id="text_3">
      <!-- 2010 -->
      <g style="fill: #262626" transform="translate(158.279787 291.574988) scale(0.1375 -0.1375)">
       <defs>
        <path id="ArialMT-31" d="M 2384 0 
L 1822 0 
L 1822 3584 
Q 1619 3391 1289 3197 
Q 959 3003 697 2906 
L 697 3450 
Q 1169 3672 1522 3987 
Q 1875 4303 2022 4600 
L 2384 4600 
L 2384 0 
z
" transform="scale(0.015625)"/>
       </defs>
       <use xlink:href="#ArialMT-32"/>
       <use xlink:href="#ArialMT-30" x="55.615234"/>
       <use xlink:href="#ArialMT-31" x="111.230469"/>
       <use xlink:href="#ArialMT-30" x="166.845703"/>
      </g>
     </g>
    </g>
    <g id="xtick_4">
     <g id="line2d_4">
      <path d="M 238.503274 278.232996 
L 238.503274 12.120996 
" clip-path="url(#pe841f5357d)" style="fill: none; stroke: #cccccc; stroke-linecap: round"/>
     </g>
     <g id="text_4">
      <!-- 2012 -->
      <g style="fill: #262626" transform="translate(223.210696 291.574988) scale(0.1375 -0.1375)">
       <use xlink:href="#ArialMT-32"/>
       <use xlink:href="#ArialMT-30" x="55.615234"/>
       <use xlink:href="#ArialMT-31" x="111.230469"/>
       <use xlink:href="#ArialMT-32" x="166.845703"/>
      </g>
     </g>
    </g>
    <g id="xtick_5">
     <g id="line2d_5">
      <path d="M 303.434183 278.232996 
L 303.434183 12.120996 
" clip-path="url(#pe841f5357d)" style="fill: none; stroke: #cccccc; stroke-linecap: round"/>
     </g>
     <g id="text_5">
      <!-- 2014 -->
      <g style="fill: #262626" transform="translate(288.141605 291.574988) scale(0.1375 -0.1375)">
       <defs>
        <path id="ArialMT-34" d="M 2069 0 
L 2069 1097 
L 81 1097 
L 81 1613 
L 2172 4581 
L 2631 4581 
L 2631 1613 
L 3250 1613 
L 3250 1097 
L 2631 1097 
L 2631 0 
L 2069 0 
z
M 2069 1613 
L 2069 3678 
L 634 1613 
L 2069 1613 
z
" transform="scale(0.015625)"/>
       </defs>
       <use xlink:href="#ArialMT-32"/>
       <use xlink:href="#ArialMT-30" x="55.615234"/>
       <use xlink:href="#ArialMT-31" x="111.230469"/>
       <use xlink:href="#ArialMT-34" x="166.845703"/>
      </g>
     </g>
    </g>
    <g id="xtick_6">
     <g id="line2d_6">
      <path d="M 368.365092 278.232996 
L 368.365092 12.120996 
" clip-path="url(#pe841f5357d)" style="fill: none; stroke: #cccccc; stroke-linecap: round"/>
     </g>
     <g id="text_6">
      <!-- 2016 -->
      <g style="fill: #262626" transform="translate(353.072514 291.574988) scale(0.1375 -0.1375)">
       <use xlink:href="#ArialMT-32"/>
       <use xlink:href="#ArialMT-30" x="55.615234"/>
       <use xlink:href="#ArialMT-31" x="111.230469"/>
       <use xlink:href="#ArialMT-36" x="166.845703"/>
      </g>
     </g>
    </g>
    <g id="text_7">
     <!-- Year -->
     <g style="fill: #262626" transform="translate(207.113516 309.04452) scale(0.15 -0.15)">
      <defs>
       <path id="ArialMT-59" d="M 1784 0 
L 1784 1941 
L 19 4581 
L 756 4581 
L 1659 3200 
Q 1909 2813 2125 2425 
Q 2331 2784 2625 3234 
L 3513 4581 
L 4219 4581 
L 2391 1941 
L 2391 0 
L 1784 0 
z
" transform="scale(0.015625)"/>
       <path id="ArialMT-65" d="M 2694 1069 
L 3275 997 
Q 3138 488 2766 206 
Q 2394 -75 1816 -75 
Q 1088 -75 661 373 
Q 234 822 234 1631 
Q 234 2469 665 2931 
Q 1097 3394 1784 3394 
Q 2450 3394 2872 2941 
Q 3294 2488 3294 1666 
Q 3294 1616 3291 1516 
L 816 1516 
Q 847 969 1125 678 
Q 1403 388 1819 388 
Q 2128 388 2347 550 
Q 2566 713 2694 1069 
z
M 847 1978 
L 2700 1978 
Q 2663 2397 2488 2606 
Q 2219 2931 1791 2931 
Q 1403 2931 1139 2672 
Q 875 2413 847 1978 
z
" transform="scale(0.015625)"/>
       <path id="ArialMT-61" d="M 2588 409 
Q 2275 144 1986 34 
Q 1697 -75 1366 -75 
Q 819 -75 525 192 
Q 231 459 231 875 
Q 231 1119 342 1320 
Q 453 1522 633 1644 
Q 813 1766 1038 1828 
Q 1203 1872 1538 1913 
Q 2219 1994 2541 2106 
Q 2544 2222 2544 2253 
Q 2544 2597 2384 2738 
Q 2169 2928 1744 2928 
Q 1347 2928 1158 2789 
Q 969 2650 878 2297 
L 328 2372 
Q 403 2725 575 2942 
Q 747 3159 1072 3276 
Q 1397 3394 1825 3394 
Q 2250 3394 2515 3294 
Q 2781 3194 2906 3042 
Q 3031 2891 3081 2659 
Q 3109 2516 3109 2141 
L 3109 1391 
Q 3109 606 3145 398 
Q 3181 191 3288 0 
L 2700 0 
Q 2613 175 2588 409 
z
M 2541 1666 
Q 2234 1541 1622 1453 
Q 1275 1403 1131 1340 
Q 988 1278 909 1158 
Q 831 1038 831 891 
Q 831 666 1001 516 
Q 1172 366 1500 366 
Q 1825 366 2078 508 
Q 2331 650 2450 897 
Q 2541 1088 2541 1459 
L 2541 1666 
z
" transform="scale(0.015625)"/>
       <path id="ArialMT-72" d="M 416 0 
L 416 3319 
L 922 3319 
L 922 2816 
Q 1116 3169 1280 3281 
Q 1444 3394 1641 3394 
Q 1925 3394 2219 3213 
L 2025 2691 
Q 1819 2813 1613 2813 
Q 1428 2813 1281 2702 
Q 1134 2591 1072 2394 
Q 978 2094 978 1738 
L 978 0 
L 416 0 
z
" transform="scale(0.015625)"/>
      </defs>
      <use xlink:href="#ArialMT-59"/>
      <use xlink:href="#ArialMT-65" x="57.574219"/>
      <use xlink:href="#ArialMT-61" x="113.189453"/>
      <use xlink:href="#ArialMT-72" x="168.804688"/>
     </g>
    </g>
   </g>
   <g id="matplotlib.axis_2">
    <g id="ytick_1">
     <g id="line2d_7">
      <path d="M 43.710547 278.232996 
L 400.830547 278.232996 
" clip-path="url(#pe841f5357d)" style="fill: none; stroke: #cccccc; stroke-linecap: round"/>
     </g>
     <g id="text_8">
      <!-- 0 -->
      <g style="fill: #262626" transform="translate(32.564258 283.153992) scale(0.1375 -0.1375)">
       <use xlink:href="#ArialMT-30"/>
      </g>
     </g>
    </g>
    <g id="ytick_2">
     <g id="line2d_8">
      <path d="M 43.710547 225.010596 
L 400.830547 225.010596 
" clip-path="url(#pe841f5357d)" style="fill: none; stroke: #cccccc; stroke-linecap: round"/>
     </g>
     <g id="text_9">
      <!-- 2 -->
      <g style="fill: #262626" transform="translate(32.564258 229.931592) scale(0.1375 -0.1375)">
       <use xlink:href="#ArialMT-32"/>
      </g>
     </g>
    </g>
    <g id="ytick_3">
     <g id="line2d_9">
      <path d="M 43.710547 171.788196 
L 400.830547 171.788196 
" clip-path="url(#pe841f5357d)" style="fill: none; stroke: #cccccc; stroke-linecap: round"/>
     </g>
     <g id="text_10">
      <!-- 4 -->
      <g style="fill: #262626" transform="translate(32.564258 176.709192) scale(0.1375 -0.1375)">
       <use xlink:href="#ArialMT-34"/>
      </g>
     </g>
    </g>
    <g id="ytick_4">
     <g id="line2d_10">
      <path d="M 43.710547 118.565796 
L 400.830547 118.565796 
" clip-path="url(#pe841f5357d)" style="fill: none; stroke: #cccccc; stroke-linecap: round"/>
     </g>
     <g id="text_11">
      <!-- 6 -->
      <g style="fill: #262626" transform="translate(32.564258 123.486792) scale(0.1375 -0.1375)">
       <use xlink:href="#ArialMT-36"/>
      </g>
     </g>
    </g>
    <g id="ytick_5">
     <g id="line2d_11">
      <path d="M 43.710547 65.343396 
L 400.830547 65.343396 
" clip-path="url(#pe841f5357d)" style="fill: none; stroke: #cccccc; stroke-linecap: round"/>
     </g>
     <g id="text_12">
      <!-- 8 -->
      <g style="fill: #262626" transform="translate(32.564258 70.264392) scale(0.1375 -0.1375)">
       <use xlink:href="#ArialMT-38"/>
      </g>
     </g>
    </g>
    <g id="ytick_6">
     <g id="line2d_12">
      <path d="M 43.710547 12.120996 
L 400.830547 12.120996 
" clip-path="url(#pe841f5357d)" style="fill: none; stroke: #cccccc; stroke-linecap: round"/>
     </g>
     <g id="text_13">
      <!-- 10 -->
      <g style="fill: #262626" transform="translate(24.917969 17.041992) scale(0.1375 -0.1375)">
       <use xlink:href="#ArialMT-31"/>
       <use xlink:href="#ArialMT-30" x="55.615234"/>
      </g>
     </g>
    </g>
    <g id="text_14">
     <!-- Odds Ratio -->
     <g style="fill: #262626" transform="translate(17.936719 182.693402) rotate(-90) scale(0.15 -0.15)">
      <defs>
       <path id="ArialMT-4f" d="M 309 2231 
Q 309 3372 921 4017 
Q 1534 4663 2503 4663 
Q 3138 4663 3647 4359 
Q 4156 4056 4423 3514 
Q 4691 2972 4691 2284 
Q 4691 1588 4409 1038 
Q 4128 488 3612 205 
Q 3097 -78 2500 -78 
Q 1853 -78 1343 234 
Q 834 547 571 1087 
Q 309 1628 309 2231 
z
M 934 2222 
Q 934 1394 1379 917 
Q 1825 441 2497 441 
Q 3181 441 3623 922 
Q 4066 1403 4066 2288 
Q 4066 2847 3877 3264 
Q 3688 3681 3323 3911 
Q 2959 4141 2506 4141 
Q 1863 4141 1398 3698 
Q 934 3256 934 2222 
z
" transform="scale(0.015625)"/>
       <path id="ArialMT-64" d="M 2575 0 
L 2575 419 
Q 2259 -75 1647 -75 
Q 1250 -75 917 144 
Q 584 363 401 755 
Q 219 1147 219 1656 
Q 219 2153 384 2558 
Q 550 2963 881 3178 
Q 1213 3394 1622 3394 
Q 1922 3394 2156 3267 
Q 2391 3141 2538 2938 
L 2538 4581 
L 3097 4581 
L 3097 0 
L 2575 0 
z
M 797 1656 
Q 797 1019 1065 703 
Q 1334 388 1700 388 
Q 2069 388 2326 689 
Q 2584 991 2584 1609 
Q 2584 2291 2321 2609 
Q 2059 2928 1675 2928 
Q 1300 2928 1048 2622 
Q 797 2316 797 1656 
z
" transform="scale(0.015625)"/>
       <path id="ArialMT-73" d="M 197 991 
L 753 1078 
Q 800 744 1014 566 
Q 1228 388 1613 388 
Q 2000 388 2187 545 
Q 2375 703 2375 916 
Q 2375 1106 2209 1216 
Q 2094 1291 1634 1406 
Q 1016 1563 777 1677 
Q 538 1791 414 1992 
Q 291 2194 291 2438 
Q 291 2659 392 2848 
Q 494 3038 669 3163 
Q 800 3259 1026 3326 
Q 1253 3394 1513 3394 
Q 1903 3394 2198 3281 
Q 2494 3169 2634 2976 
Q 2775 2784 2828 2463 
L 2278 2388 
Q 2241 2644 2061 2787 
Q 1881 2931 1553 2931 
Q 1166 2931 1000 2803 
Q 834 2675 834 2503 
Q 834 2394 903 2306 
Q 972 2216 1119 2156 
Q 1203 2125 1616 2013 
Q 2213 1853 2448 1751 
Q 2684 1650 2818 1456 
Q 2953 1263 2953 975 
Q 2953 694 2789 445 
Q 2625 197 2315 61 
Q 2006 -75 1616 -75 
Q 969 -75 630 194 
Q 291 463 197 991 
z
" transform="scale(0.015625)"/>
       <path id="ArialMT-20" transform="scale(0.015625)"/>
       <path id="ArialMT-52" d="M 503 0 
L 503 4581 
L 2534 4581 
Q 3147 4581 3465 4457 
Q 3784 4334 3975 4021 
Q 4166 3709 4166 3331 
Q 4166 2844 3850 2509 
Q 3534 2175 2875 2084 
Q 3116 1969 3241 1856 
Q 3506 1613 3744 1247 
L 4541 0 
L 3778 0 
L 3172 953 
Q 2906 1366 2734 1584 
Q 2563 1803 2427 1890 
Q 2291 1978 2150 2013 
Q 2047 2034 1813 2034 
L 1109 2034 
L 1109 0 
L 503 0 
z
M 1109 2559 
L 2413 2559 
Q 2828 2559 3062 2645 
Q 3297 2731 3419 2920 
Q 3541 3109 3541 3331 
Q 3541 3656 3305 3865 
Q 3069 4075 2559 4075 
L 1109 4075 
L 1109 2559 
z
" transform="scale(0.015625)"/>
       <path id="ArialMT-74" d="M 1650 503 
L 1731 6 
Q 1494 -44 1306 -44 
Q 1000 -44 831 53 
Q 663 150 594 308 
Q 525 466 525 972 
L 525 2881 
L 113 2881 
L 113 3319 
L 525 3319 
L 525 4141 
L 1084 4478 
L 1084 3319 
L 1650 3319 
L 1650 2881 
L 1084 2881 
L 1084 941 
Q 1084 700 1114 631 
Q 1144 563 1211 522 
Q 1278 481 1403 481 
Q 1497 481 1650 503 
z
" transform="scale(0.015625)"/>
       <path id="ArialMT-69" d="M 425 3934 
L 425 4581 
L 988 4581 
L 988 3934 
L 425 3934 
z
M 425 0 
L 425 3319 
L 988 3319 
L 988 0 
L 425 0 
z
" transform="scale(0.015625)"/>
       <path id="ArialMT-6f" d="M 213 1659 
Q 213 2581 725 3025 
Q 1153 3394 1769 3394 
Q 2453 3394 2887 2945 
Q 3322 2497 3322 1706 
Q 3322 1066 3130 698 
Q 2938 331 2570 128 
Q 2203 -75 1769 -75 
Q 1072 -75 642 372 
Q 213 819 213 1659 
z
M 791 1659 
Q 791 1022 1069 705 
Q 1347 388 1769 388 
Q 2188 388 2466 706 
Q 2744 1025 2744 1678 
Q 2744 2294 2464 2611 
Q 2184 2928 1769 2928 
Q 1347 2928 1069 2612 
Q 791 2297 791 1659 
z
" transform="scale(0.015625)"/>
      </defs>
      <use xlink:href="#ArialMT-4f"/>
      <use xlink:href="#ArialMT-64" x="77.783203"/>
      <use xlink:href="#ArialMT-64" x="133.398438"/>
      <use xlink:href="#ArialMT-73" x="189.013672"/>
      <use xlink:href="#ArialMT-20" x="239.013672"/>
      <use xlink:href="#ArialMT-52" x="266.796875"/>
      <use xlink:href="#ArialMT-61" x="339.013672"/>
      <use xlink:href="#ArialMT-74" x="394.628906"/>
      <use xlink:href="#ArialMT-69" x="422.412109"/>
      <use xlink:href="#ArialMT-6f" x="444.628906"/>
     </g>
    </g>
   </g>
   <g id="PolyCollection_1"/>
   <g id="PolyCollection_2"/>
   <g id="PolyCollection_3"/>
   <g id="PolyCollection_4"/>
   <g id="PolyCollection_5"/>
   <g id="PolyCollection_6"/>
   <g id="PolyCollection_7"/>
   <g id="PolyCollection_8"/>
   <g id="PolyCollection_9"/>
   <g id="PolyCollection_10"/>
   <g id="PolyCollection_11"/>
   <g id="PolyCollection_12"/>
   <g id="PolyCollection_13"/>
   <g id="PolyCollection_14"/>
   <g id="PolyCollection_15"/>
   <g id="PolyCollection_16"/>
   <g id="PolyCollection_17"/>
   <g id="PolyCollection_18"/>
   <g id="PolyCollection_19"/>
   <g id="PolyCollection_20"/>
   <g id="PolyCollection_21"/>
   <g id="line2d_13">
    <path d="M 43.710547 203.968224 
L 76.176001 249.696405 
L 108.641456 217.38162 
L 141.106911 255.632492 
L 173.572365 255.132123 
L 206.03782 263.512794 
L 238.503274 257.012493 
L 270.968729 247.317675 
L 303.434183 218.05165 
L 335.899638 221.343489 
L 368.365092 263.758862 
L 400.830547 254.120368 
" clip-path="url(#pe841f5357d)" style="fill: none; stroke: #ff0000; stroke-width: 1.5; stroke-linecap: round"/>
   </g>
   <g id="line2d_14">
    <path d="M 43.710547 160.724311 
L 76.176001 257.285952 
L 108.641456 265.309117 
L 141.106911 225.26402 
L 173.572365 256.948778 
L 206.03782 262.2983 
L 238.503274 210.427669 
L 270.968729 255.041515 
L 303.434183 270.686282 
L 335.899638 236.601687 
L 368.365092 247.602774 
L 400.830547 256.823148 
" clip-path="url(#pe841f5357d)" style="fill: none; stroke: #dda0dd; stroke-width: 1.5; stroke-linecap: round"/>
   </g>
   <g id="line2d_15">
    <path d="M 43.710547 260.706051 
L 76.176001 252.267461 
L 108.641456 250.275616 
L 141.106911 246.881495 
L 173.572365 251.11795 
L 206.03782 250.164085 
L 238.503274 247.802375 
L 270.968729 252.328491 
L 303.434183 249.969031 
L 335.899638 262.332183 
L 368.365092 252.273254 
L 400.830547 253.283014 
" clip-path="url(#pe841f5357d)" style="fill: none; stroke: #0000ff; stroke-width: 1.5; stroke-linecap: round"/>
   </g>
   <g id="line2d_16">
    <path d="M 43.710547 193.239324 
L 76.176001 251.015259 
L 108.641456 240.650962 
L 141.106911 261.208331 
L 173.572365 252.362994 
L 206.03782 249.404334 
L 238.503274 251.408136 
L 270.968729 253.447807 
L 303.434183 252.996575 
L 335.899638 232.117395 
L 368.365092 250.446393 
L 400.830547 255.739928 
" clip-path="url(#pe841f5357d)" style="fill: none; stroke: #008000; stroke-width: 1.5; stroke-linecap: round"/>
   </g>
   <g id="line2d_17">
    <path d="M 43.710547 277.582223 
L 76.176001 236.109647 
L 108.641456 273.221675 
L 141.106911 260.348729 
L 173.572365 243.463713 
L 206.03782 220.98206 
L 238.503274 274.316019 
L 270.968729 234.434996 
L 303.434183 51.464687 
L 335.899638 227.707102 
L 368.365092 260.808086 
L 373.503697 -1 
" clip-path="url(#pe841f5357d)" style="fill: none; stroke: #00ffff; stroke-width: 1.5; stroke-linecap: round"/>
   </g>
   <g id="line2d_18">
    <path d="M 43.710547 114.378355 
L 76.176001 264.414547 
L 80.302948 -1 
M 137.560374 -1 
L 141.106911 222.509079 
L 173.572365 246.938151 
L 206.03782 263.523693 
L 238.503274 161.307389 
L 270.968729 260.144186 
L 303.434183 278.062544 
L 335.899638 275.803312 
L 368.365092 21.949813 
L 400.830547 278.120162 
" clip-path="url(#pe841f5357d)" style="fill: none; stroke: #ff7f50; stroke-width: 1.5; stroke-linecap: round"/>
   </g>
   <g id="line2d_19">
    <path d="M 43.710547 256.374559 
L 76.176001 251.475891 
L 108.641456 253.060759 
L 141.106911 248.277657 
L 173.572365 251.48199 
L 206.03782 252.0195 
L 238.503274 252.792019 
L 270.968729 249.177619 
L 303.434183 228.012534 
L 335.899638 262.343101 
L 368.365092 257.577509 
L 400.830547 228.680162 
" clip-path="url(#pe841f5357d)" style="fill: none; stroke: #d2691e; stroke-width: 1.5; stroke-linecap: round"/>
   </g>
   <g id="line2d_20">
    <path d="M 43.710547 227.884756 
L 76.176001 250.540898 
L 108.641456 224.774325 
L 141.106911 256.336479 
L 173.572365 255.812381 
L 206.03782 264.857465 
L 238.503274 257.956195 
L 270.968729 248.032242 
L 303.434183 226.827285 
L 335.899638 233.373658 
L 368.365092 266.965265 
L 400.830547 256.265405 
" clip-path="url(#pe841f5357d)" style="fill: none; stroke-dasharray: 5.55,2.4; stroke-dashoffset: 0; stroke: #ff0000; stroke-width: 1.5"/>
   </g>
   <g id="line2d_21">
    <path d="M 43.710547 199.027875 
L 76.176001 258.254098 
L 108.641456 266.66321 
L 141.106911 231.425959 
L 173.572365 257.702228 
L 206.03782 263.332914 
L 238.503274 217.813707 
L 270.968729 255.522232 
L 303.434183 273.384131 
L 335.899638 266.977699 
L 368.365092 251.45172 
L 400.830547 262.237013 
" clip-path="url(#pe841f5357d)" style="fill: none; stroke-dasharray: 5.55,2.4; stroke-dashoffset: 0; stroke: #dda0dd; stroke-width: 1.5"/>
   </g>
   <g id="line2d_22">
    <path d="M 43.710547 262.720843 
L 76.176001 252.366922 
L 108.641456 250.954722 
L 141.106911 247.622395 
L 173.572365 251.311757 
L 206.03782 250.453119 
L 238.503274 248.383803 
L 270.968729 252.567038 
L 303.434183 251.034325 
L 335.899638 266.160086 
L 368.365092 254.185481 
L 400.830547 254.977941 
" clip-path="url(#pe841f5357d)" style="fill: none; stroke-dasharray: 5.55,2.4; stroke-dashoffset: 0; stroke: #0000ff; stroke-width: 1.5"/>
   </g>
   <g id="line2d_23">
    <path d="M 43.710547 220.461885 
L 76.176001 251.192037 
L 108.641456 242.403558 
L 141.106911 262.227214 
L 173.572365 252.640225 
L 206.03782 250.157813 
L 238.503274 251.54787 
L 270.968729 253.711772 
L 303.434183 253.334233 
L 335.899638 239.630012 
L 368.365092 253.252603 
L 400.830547 257.055844 
" clip-path="url(#pe841f5357d)" style="fill: none; stroke-dasharray: 5.55,2.4; stroke-dashoffset: 0; stroke: #008000; stroke-width: 1.5"/>
   </g>
   <g id="line2d_24">
    <path d="M 43.710547 277.995583 
L 76.176001 241.76493 
L 108.641456 274.286246 
L 141.106911 261.337177 
L 173.572365 244.804462 
L 206.03782 225.894788 
L 238.503274 275.140291 
L 270.968729 237.362705 
L 303.434183 168.670603 
L 335.899638 246.258411 
L 368.365092 266.586235 
L 385.773078 -1 
" clip-path="url(#pe841f5357d)" style="fill: none; stroke-dasharray: 5.55,2.4; stroke-dashoffset: 0; stroke: #00ffff; stroke-width: 1.5"/>
   </g>
   <g id="line2d_25">
    <path d="M 43.710547 194.900692 
L 76.176001 268.372509 
L 84.011379 -1 
M 134.224695 -1 
L 141.106911 226.788536 
L 173.572365 248.647099 
L 206.03782 265.234224 
L 238.503274 178.976522 
L 270.968729 261.412432 
L 303.434183 278.19321 
L 335.899638 277.191836 
L 368.365092 170.161429 
L 400.830547 278.209193 
" clip-path="url(#pe841f5357d)" style="fill: none; stroke-dasharray: 5.55,2.4; stroke-dashoffset: 0; stroke: #ff7f50; stroke-width: 1.5"/>
   </g>
   <g id="line2d_26">
    <path d="M 43.710547 257.617109 
L 76.176001 251.817654 
L 108.641456 253.247262 
L 141.106911 248.775192 
L 173.572365 251.65113 
L 206.03782 252.245857 
L 238.503274 252.945199 
L 270.968729 249.555769 
L 303.434183 235.918357 
L 335.899638 268.188475 
L 368.365092 260.697307 
L 400.830547 237.435084 
" clip-path="url(#pe841f5357d)" style="fill: none; stroke-dasharray: 5.55,2.4; stroke-dashoffset: 0; stroke: #d2691e; stroke-width: 1.5"/>
   </g>
   <g id="line2d_27">
    <path d="M 43.710547 168.690807 
L 76.176001 248.826158 
L 108.641456 208.96659 
L 141.106911 254.905872 
L 173.572365 254.431225 
L 206.03782 262.032941 
L 238.503274 256.02487 
L 270.968729 246.586201 
L 303.434183 207.777898 
L 335.899638 206.087125 
L 368.365092 259.640027 
L 400.830547 251.765878 
" clip-path="url(#pe841f5357d)" style="fill: none; stroke-dasharray: 5.55,2.4; stroke-dashoffset: 0; stroke: #ff0000; stroke-width: 1.5"/>
   </g>
   <g id="line2d_28">
    <path d="M 43.710547 103.89716 
L 76.176001 256.270892 
L 108.641456 263.796545 
L 141.106911 218.29089 
L 173.572365 256.167676 
L 206.03782 261.191845 
L 238.503274 202.138715 
L 270.968729 254.550622 
L 303.434183 266.487383 
L 335.899638 124.246309 
L 368.365092 243.200666 
L 400.830547 249.576952 
" clip-path="url(#pe841f5357d)" style="fill: none; stroke-dasharray: 5.55,2.4; stroke-dashoffset: 0; stroke: #dda0dd; stroke-width: 1.5"/>
   </g>
   <g id="line2d_29">
    <path d="M 43.710547 258.429569 
L 76.176001 252.167616 
L 108.641456 249.579603 
L 141.106911 246.122663 
L 173.572365 250.922747 
L 206.03782 249.872043 
L 238.503274 247.209621 
L 270.968729 252.087726 
L 303.434183 248.862012 
L 335.899638 257.290583 
L 368.365092 250.208969 
L 400.830547 251.464554 
" clip-path="url(#pe841f5357d)" style="fill: none; stroke-dasharray: 5.55,2.4; stroke-dashoffset: 0; stroke: #0000ff; stroke-width: 1.5"/>
   </g>
   <g id="line2d_30">
    <path d="M 43.710547 153.189109 
L 76.176001 250.837326 
L 108.641456 238.812638 
L 141.106911 260.124588 
L 173.572365 252.08276 
L 206.03782 248.630633 
L 238.503274 251.267671 
L 270.968729 253.181 
L 303.434183 252.654338 
L 335.899638 223.142729 
L 368.365092 247.324943 
L 400.830547 254.342244 
" clip-path="url(#pe841f5357d)" style="fill: none; stroke-dasharray: 5.55,2.4; stroke-dashoffset: 0; stroke: #008000; stroke-width: 1.5"/>
   </g>
   <g id="line2d_31">
    <path d="M 43.710547 276.44916 
L 76.176001 229.577371 
L 108.641456 271.869954 
L 141.106911 259.302454 
L 173.572365 242.069189 
L 206.03782 215.6082 
L 238.503274 273.272061 
L 270.968729 231.297563 
L 288.822096 -1 
M 319.28065 -1 
L 335.899638 198.392525 
L 368.365092 252.163302 
L 369.874587 -1 
" clip-path="url(#pe841f5357d)" style="fill: none; stroke-dasharray: 5.55,2.4; stroke-dashoffset: 0; stroke: #00ffff; stroke-width: 1.5"/>
   </g>
   <g id="line2d_32">
    <path d="M 48.315368 -1 
L 76.176001 258.867874 
L 78.337195 -1 
M 139.267328 -1 
L 141.106911 217.873632 
L 173.572365 245.130491 
L 206.03782 261.58807 
L 238.503274 140.492888 
L 270.968729 258.780315 
L 303.434183 277.502742 
L 335.899638 272.563009 
L 350.650616 -1 
M 385.929762 -1 
L 400.830547 277.698126 
" clip-path="url(#pe841f5357d)" style="fill: none; stroke-dasharray: 5.55,2.4; stroke-dashoffset: 0; stroke: #ff7f50; stroke-width: 1.5"/>
   </g>
   <g id="line2d_33">
    <path d="M 43.710547 255.057118 
L 76.176001 251.129706 
L 108.641456 252.872863 
L 141.106911 247.771718 
L 173.572365 251.311773 
L 206.03782 251.79117 
L 238.503274 252.637911 
L 270.968729 248.794483 
L 303.434183 218.629633 
L 335.899638 253.096031 
L 368.365092 253.902663 
L 400.830547 218.0465 
" clip-path="url(#pe841f5357d)" style="fill: none; stroke-dasharray: 5.55,2.4; stroke-dashoffset: 0; stroke: #d2691e; stroke-width: 1.5"/>
   </g>
   <g id="line2d_34">
    <path d="M 43.710547 251.621796 
L 400.830547 251.621796 
" clip-path="url(#pe841f5357d)" style="fill: none; stroke: #808080; stroke-opacity: 0.8; stroke-width: 1.5; stroke-linecap: round"/>
   </g>
   <g id="patch_3">
    <path d="M 43.710547 278.232996 
L 43.710547 12.120996 
" style="fill: none; stroke: #cccccc; stroke-linejoin: miter; stroke-linecap: square"/>
   </g>
   <g id="patch_4">
    <path d="M 400.830547 278.232996 
L 400.830547 12.120996 
" style="fill: none; stroke: #cccccc; stroke-linejoin: miter; stroke-linecap: square"/>
   </g>
   <g id="patch_5">
    <path d="M 43.710547 278.232996 
L 400.830547 278.232996 
" style="fill: none; stroke: #cccccc; stroke-linejoin: miter; stroke-linecap: square"/>
   </g>
   <g id="patch_6">
    <path d="M 43.710547 12.120996 
L 400.830547 12.120996 
" style="fill: none; stroke: #cccccc; stroke-linejoin: miter; stroke-linecap: square"/>
   </g>
   <g id="legend_1">
    <g id="line2d_35">
     <path d="M 431.061547 135.970288 
L 444.811547 135.970288 
L 458.561547 135.970288 
" style="fill: none; stroke: #ff0000; stroke-width: 1.5; stroke-linecap: round"/>
    </g>
    <g id="text_15">
     <!-- Male-Black -->
     <g style="fill: #262626" transform="translate(469.561547 140.782788) scale(0.1375 -0.1375)">
      <defs>
       <path id="ArialMT-4d" d="M 475 0 
L 475 4581 
L 1388 4581 
L 2472 1338 
Q 2622 884 2691 659 
Q 2769 909 2934 1394 
L 4031 4581 
L 4847 4581 
L 4847 0 
L 4263 0 
L 4263 3834 
L 2931 0 
L 2384 0 
L 1059 3900 
L 1059 0 
L 475 0 
z
" transform="scale(0.015625)"/>
       <path id="ArialMT-6c" d="M 409 0 
L 409 4581 
L 972 4581 
L 972 0 
L 409 0 
z
" transform="scale(0.015625)"/>
       <path id="ArialMT-2d" d="M 203 1375 
L 203 1941 
L 1931 1941 
L 1931 1375 
L 203 1375 
z
" transform="scale(0.015625)"/>
       <path id="ArialMT-42" d="M 469 0 
L 469 4581 
L 2188 4581 
Q 2713 4581 3030 4442 
Q 3347 4303 3526 4014 
Q 3706 3725 3706 3409 
Q 3706 3116 3547 2856 
Q 3388 2597 3066 2438 
Q 3481 2316 3704 2022 
Q 3928 1728 3928 1328 
Q 3928 1006 3792 729 
Q 3656 453 3456 303 
Q 3256 153 2954 76 
Q 2653 0 2216 0 
L 469 0 
z
M 1075 2656 
L 2066 2656 
Q 2469 2656 2644 2709 
Q 2875 2778 2992 2937 
Q 3109 3097 3109 3338 
Q 3109 3566 3000 3739 
Q 2891 3913 2687 3977 
Q 2484 4041 1991 4041 
L 1075 4041 
L 1075 2656 
z
M 1075 541 
L 2216 541 
Q 2509 541 2628 563 
Q 2838 600 2978 687 
Q 3119 775 3209 942 
Q 3300 1109 3300 1328 
Q 3300 1584 3169 1773 
Q 3038 1963 2805 2039 
Q 2572 2116 2134 2116 
L 1075 2116 
L 1075 541 
z
" transform="scale(0.015625)"/>
       <path id="ArialMT-63" d="M 2588 1216 
L 3141 1144 
Q 3050 572 2676 248 
Q 2303 -75 1759 -75 
Q 1078 -75 664 370 
Q 250 816 250 1647 
Q 250 2184 428 2587 
Q 606 2991 970 3192 
Q 1334 3394 1763 3394 
Q 2303 3394 2647 3120 
Q 2991 2847 3088 2344 
L 2541 2259 
Q 2463 2594 2264 2762 
Q 2066 2931 1784 2931 
Q 1359 2931 1093 2626 
Q 828 2322 828 1663 
Q 828 994 1084 691 
Q 1341 388 1753 388 
Q 2084 388 2306 591 
Q 2528 794 2588 1216 
z
" transform="scale(0.015625)"/>
       <path id="ArialMT-6b" d="M 425 0 
L 425 4581 
L 988 4581 
L 988 1969 
L 2319 3319 
L 3047 3319 
L 1778 2088 
L 3175 0 
L 2481 0 
L 1384 1697 
L 988 1316 
L 988 0 
L 425 0 
z
" transform="scale(0.015625)"/>
      </defs>
      <use xlink:href="#ArialMT-4d"/>
      <use xlink:href="#ArialMT-61" x="83.300781"/>
      <use xlink:href="#ArialMT-6c" x="138.916016"/>
      <use xlink:href="#ArialMT-65" x="161.132812"/>
      <use xlink:href="#ArialMT-2d" x="216.748047"/>
      <use xlink:href="#ArialMT-42" x="250.048828"/>
      <use xlink:href="#ArialMT-6c" x="316.748047"/>
      <use xlink:href="#ArialMT-61" x="338.964844"/>
      <use xlink:href="#ArialMT-63" x="394.580078"/>
      <use xlink:href="#ArialMT-6b" x="444.580078"/>
     </g>
    </g>
    <g id="line2d_36">
     <path d="M 431.061547 155.420093 
L 444.811547 155.420093 
L 458.561547 155.420093 
" style="fill: none; stroke: #dda0dd; stroke-width: 1.5; stroke-linecap: round"/>
    </g>
    <g id="text_16">
     <!-- Female-Black -->
     <g style="fill: #262626" transform="translate(469.561547 160.232593) scale(0.1375 -0.1375)">
      <defs>
       <path id="ArialMT-46" d="M 525 0 
L 525 4581 
L 3616 4581 
L 3616 4041 
L 1131 4041 
L 1131 2622 
L 3281 2622 
L 3281 2081 
L 1131 2081 
L 1131 0 
L 525 0 
z
" transform="scale(0.015625)"/>
       <path id="ArialMT-6d" d="M 422 0 
L 422 3319 
L 925 3319 
L 925 2853 
Q 1081 3097 1340 3245 
Q 1600 3394 1931 3394 
Q 2300 3394 2536 3241 
Q 2772 3088 2869 2813 
Q 3263 3394 3894 3394 
Q 4388 3394 4653 3120 
Q 4919 2847 4919 2278 
L 4919 0 
L 4359 0 
L 4359 2091 
Q 4359 2428 4304 2576 
Q 4250 2725 4106 2815 
Q 3963 2906 3769 2906 
Q 3419 2906 3187 2673 
Q 2956 2441 2956 1928 
L 2956 0 
L 2394 0 
L 2394 2156 
Q 2394 2531 2256 2718 
Q 2119 2906 1806 2906 
Q 1569 2906 1367 2781 
Q 1166 2656 1075 2415 
Q 984 2175 984 1722 
L 984 0 
L 422 0 
z
" transform="scale(0.015625)"/>
      </defs>
      <use xlink:href="#ArialMT-46"/>
      <use xlink:href="#ArialMT-65" x="61.083984"/>
      <use xlink:href="#ArialMT-6d" x="116.699219"/>
      <use xlink:href="#ArialMT-61" x="200"/>
      <use xlink:href="#ArialMT-6c" x="255.615234"/>
      <use xlink:href="#ArialMT-65" x="277.832031"/>
      <use xlink:href="#ArialMT-2d" x="333.447266"/>
      <use xlink:href="#ArialMT-42" x="366.748047"/>
      <use xlink:href="#ArialMT-6c" x="433.447266"/>
      <use xlink:href="#ArialMT-61" x="455.664062"/>
      <use xlink:href="#ArialMT-63" x="511.279297"/>
      <use xlink:href="#ArialMT-6b" x="561.279297"/>
     </g>
    </g>
    <g id="line2d_37">
     <path d="M 431.061547 174.869898 
L 444.811547 174.869898 
L 458.561547 174.869898 
" style="fill: none; stroke: #0000ff; stroke-width: 1.5; stroke-linecap: round"/>
    </g>
    <g id="text_17">
     <!-- Male-Hispanic -->
     <g style="fill: #262626" transform="translate(469.561547 179.682398) scale(0.1375 -0.1375)">
      <defs>
       <path id="ArialMT-48" d="M 513 0 
L 513 4581 
L 1119 4581 
L 1119 2700 
L 3500 2700 
L 3500 4581 
L 4106 4581 
L 4106 0 
L 3500 0 
L 3500 2159 
L 1119 2159 
L 1119 0 
L 513 0 
z
" transform="scale(0.015625)"/>
       <path id="ArialMT-70" d="M 422 -1272 
L 422 3319 
L 934 3319 
L 934 2888 
Q 1116 3141 1344 3267 
Q 1572 3394 1897 3394 
Q 2322 3394 2647 3175 
Q 2972 2956 3137 2557 
Q 3303 2159 3303 1684 
Q 3303 1175 3120 767 
Q 2938 359 2589 142 
Q 2241 -75 1856 -75 
Q 1575 -75 1351 44 
Q 1128 163 984 344 
L 984 -1272 
L 422 -1272 
z
M 931 1641 
Q 931 1000 1190 694 
Q 1450 388 1819 388 
Q 2194 388 2461 705 
Q 2728 1022 2728 1688 
Q 2728 2322 2467 2637 
Q 2206 2953 1844 2953 
Q 1484 2953 1207 2617 
Q 931 2281 931 1641 
z
" transform="scale(0.015625)"/>
       <path id="ArialMT-6e" d="M 422 0 
L 422 3319 
L 928 3319 
L 928 2847 
Q 1294 3394 1984 3394 
Q 2284 3394 2536 3286 
Q 2788 3178 2913 3003 
Q 3038 2828 3088 2588 
Q 3119 2431 3119 2041 
L 3119 0 
L 2556 0 
L 2556 2019 
Q 2556 2363 2490 2533 
Q 2425 2703 2258 2804 
Q 2091 2906 1866 2906 
Q 1506 2906 1245 2678 
Q 984 2450 984 1813 
L 984 0 
L 422 0 
z
" transform="scale(0.015625)"/>
      </defs>
      <use xlink:href="#ArialMT-4d"/>
      <use xlink:href="#ArialMT-61" x="83.300781"/>
      <use xlink:href="#ArialMT-6c" x="138.916016"/>
      <use xlink:href="#ArialMT-65" x="161.132812"/>
      <use xlink:href="#ArialMT-2d" x="216.748047"/>
      <use xlink:href="#ArialMT-48" x="250.048828"/>
      <use xlink:href="#ArialMT-69" x="322.265625"/>
      <use xlink:href="#ArialMT-73" x="344.482422"/>
      <use xlink:href="#ArialMT-70" x="394.482422"/>
      <use xlink:href="#ArialMT-61" x="450.097656"/>
      <use xlink:href="#ArialMT-6e" x="505.712891"/>
      <use xlink:href="#ArialMT-69" x="561.328125"/>
      <use xlink:href="#ArialMT-63" x="583.544922"/>
     </g>
    </g>
    <g id="line2d_38">
     <path d="M 431.061547 194.319702 
L 444.811547 194.319702 
L 458.561547 194.319702 
" style="fill: none; stroke: #008000; stroke-width: 1.5; stroke-linecap: round"/>
    </g>
    <g id="text_18">
     <!-- Female-Hispanic -->
     <g style="fill: #262626" transform="translate(469.561547 199.132202) scale(0.1375 -0.1375)">
      <use xlink:href="#ArialMT-46"/>
      <use xlink:href="#ArialMT-65" x="61.083984"/>
      <use xlink:href="#ArialMT-6d" x="116.699219"/>
      <use xlink:href="#ArialMT-61" x="200"/>
      <use xlink:href="#ArialMT-6c" x="255.615234"/>
      <use xlink:href="#ArialMT-65" x="277.832031"/>
      <use xlink:href="#ArialMT-2d" x="333.447266"/>
      <use xlink:href="#ArialMT-48" x="366.748047"/>
      <use xlink:href="#ArialMT-69" x="438.964844"/>
      <use xlink:href="#ArialMT-73" x="461.181641"/>
      <use xlink:href="#ArialMT-70" x="511.181641"/>
      <use xlink:href="#ArialMT-61" x="566.796875"/>
      <use xlink:href="#ArialMT-6e" x="622.412109"/>
      <use xlink:href="#ArialMT-69" x="678.027344"/>
      <use xlink:href="#ArialMT-63" x="700.244141"/>
     </g>
    </g>
    <g id="line2d_39">
     <path d="M 431.061547 213.769507 
L 444.811547 213.769507 
L 458.561547 213.769507 
" style="fill: none; stroke: #00ffff; stroke-width: 1.5; stroke-linecap: round"/>
    </g>
    <g id="text_19">
     <!-- Male-Asian/Pacific Islander -->
     <g style="fill: #262626" transform="translate(469.561547 218.582007) scale(0.1375 -0.1375)">
      <defs>
       <path id="ArialMT-41" d="M -9 0 
L 1750 4581 
L 2403 4581 
L 4278 0 
L 3588 0 
L 3053 1388 
L 1138 1388 
L 634 0 
L -9 0 
z
M 1313 1881 
L 2866 1881 
L 2388 3150 
Q 2169 3728 2063 4100 
Q 1975 3659 1816 3225 
L 1313 1881 
z
" transform="scale(0.015625)"/>
       <path id="ArialMT-2f" d="M 0 -78 
L 1328 4659 
L 1778 4659 
L 453 -78 
L 0 -78 
z
" transform="scale(0.015625)"/>
       <path id="ArialMT-50" d="M 494 0 
L 494 4581 
L 2222 4581 
Q 2678 4581 2919 4538 
Q 3256 4481 3484 4323 
Q 3713 4166 3852 3881 
Q 3991 3597 3991 3256 
Q 3991 2672 3619 2267 
Q 3247 1863 2275 1863 
L 1100 1863 
L 1100 0 
L 494 0 
z
M 1100 2403 
L 2284 2403 
Q 2872 2403 3119 2622 
Q 3366 2841 3366 3238 
Q 3366 3525 3220 3729 
Q 3075 3934 2838 4000 
Q 2684 4041 2272 4041 
L 1100 4041 
L 1100 2403 
z
" transform="scale(0.015625)"/>
       <path id="ArialMT-66" d="M 556 0 
L 556 2881 
L 59 2881 
L 59 3319 
L 556 3319 
L 556 3672 
Q 556 4006 616 4169 
Q 697 4388 901 4523 
Q 1106 4659 1475 4659 
Q 1713 4659 2000 4603 
L 1916 4113 
Q 1741 4144 1584 4144 
Q 1328 4144 1222 4034 
Q 1116 3925 1116 3625 
L 1116 3319 
L 1763 3319 
L 1763 2881 
L 1116 2881 
L 1116 0 
L 556 0 
z
" transform="scale(0.015625)"/>
       <path id="ArialMT-49" d="M 597 0 
L 597 4581 
L 1203 4581 
L 1203 0 
L 597 0 
z
" transform="scale(0.015625)"/>
      </defs>
      <use xlink:href="#ArialMT-4d"/>
      <use xlink:href="#ArialMT-61" x="83.300781"/>
      <use xlink:href="#ArialMT-6c" x="138.916016"/>
      <use xlink:href="#ArialMT-65" x="161.132812"/>
      <use xlink:href="#ArialMT-2d" x="216.748047"/>
      <use xlink:href="#ArialMT-41" x="250.048828"/>
      <use xlink:href="#ArialMT-73" x="316.748047"/>
      <use xlink:href="#ArialMT-69" x="366.748047"/>
      <use xlink:href="#ArialMT-61" x="388.964844"/>
      <use xlink:href="#ArialMT-6e" x="444.580078"/>
      <use xlink:href="#ArialMT-2f" x="500.195312"/>
      <use xlink:href="#ArialMT-50" x="527.978516"/>
      <use xlink:href="#ArialMT-61" x="594.677734"/>
      <use xlink:href="#ArialMT-63" x="650.292969"/>
      <use xlink:href="#ArialMT-69" x="700.292969"/>
      <use xlink:href="#ArialMT-66" x="722.509766"/>
      <use xlink:href="#ArialMT-69" x="750.292969"/>
      <use xlink:href="#ArialMT-63" x="772.509766"/>
      <use xlink:href="#ArialMT-20" x="822.509766"/>
      <use xlink:href="#ArialMT-49" x="850.292969"/>
      <use xlink:href="#ArialMT-73" x="878.076172"/>
      <use xlink:href="#ArialMT-6c" x="928.076172"/>
      <use xlink:href="#ArialMT-61" x="950.292969"/>
      <use xlink:href="#ArialMT-6e" x="1005.908203"/>
      <use xlink:href="#ArialMT-64" x="1061.523438"/>
      <use xlink:href="#ArialMT-65" x="1117.138672"/>
      <use xlink:href="#ArialMT-72" x="1172.753906"/>
     </g>
    </g>
    <g id="line2d_40">
     <path d="M 431.061547 233.219312 
L 444.811547 233.219312 
L 458.561547 233.219312 
" style="fill: none; stroke: #ff7f50; stroke-width: 1.5; stroke-linecap: round"/>
    </g>
    <g id="text_20">
     <!-- Female-Asian/Pacific Islander -->
     <g style="fill: #262626" transform="translate(469.561547 238.031812) scale(0.1375 -0.1375)">
      <use xlink:href="#ArialMT-46"/>
      <use xlink:href="#ArialMT-65" x="61.083984"/>
      <use xlink:href="#ArialMT-6d" x="116.699219"/>
      <use xlink:href="#ArialMT-61" x="200"/>
      <use xlink:href="#ArialMT-6c" x="255.615234"/>
      <use xlink:href="#ArialMT-65" x="277.832031"/>
      <use xlink:href="#ArialMT-2d" x="333.447266"/>
      <use xlink:href="#ArialMT-41" x="366.748047"/>
      <use xlink:href="#ArialMT-73" x="433.447266"/>
      <use xlink:href="#ArialMT-69" x="483.447266"/>
      <use xlink:href="#ArialMT-61" x="505.664062"/>
      <use xlink:href="#ArialMT-6e" x="561.279297"/>
      <use xlink:href="#ArialMT-2f" x="616.894531"/>
      <use xlink:href="#ArialMT-50" x="644.677734"/>
      <use xlink:href="#ArialMT-61" x="711.376953"/>
      <use xlink:href="#ArialMT-63" x="766.992188"/>
      <use xlink:href="#ArialMT-69" x="816.992188"/>
      <use xlink:href="#ArialMT-66" x="839.208984"/>
      <use xlink:href="#ArialMT-69" x="866.992188"/>
      <use xlink:href="#ArialMT-63" x="889.208984"/>
      <use xlink:href="#ArialMT-20" x="939.208984"/>
      <use xlink:href="#ArialMT-49" x="966.992188"/>
      <use xlink:href="#ArialMT-73" x="994.775391"/>
      <use xlink:href="#ArialMT-6c" x="1044.775391"/>
      <use xlink:href="#ArialMT-61" x="1066.992188"/>
      <use xlink:href="#ArialMT-6e" x="1122.607422"/>
      <use xlink:href="#ArialMT-64" x="1178.222656"/>
      <use xlink:href="#ArialMT-65" x="1233.837891"/>
      <use xlink:href="#ArialMT-72" x="1289.453125"/>
     </g>
    </g>
    <g id="line2d_41">
     <path d="M 431.061547 252.669116 
L 444.811547 252.669116 
L 458.561547 252.669116 
" style="fill: none; stroke: #d2691e; stroke-width: 1.5; stroke-linecap: round"/>
    </g>
    <g id="text_21">
     <!-- Female-White -->
     <g style="fill: #262626" transform="translate(469.561547 257.481616) scale(0.1375 -0.1375)">
      <defs>
       <path id="ArialMT-57" d="M 1294 0 
L 78 4581 
L 700 4581 
L 1397 1578 
Q 1509 1106 1591 641 
Q 1766 1375 1797 1488 
L 2669 4581 
L 3400 4581 
L 4056 2263 
Q 4303 1400 4413 641 
Q 4500 1075 4641 1638 
L 5359 4581 
L 5969 4581 
L 4713 0 
L 4128 0 
L 3163 3491 
Q 3041 3928 3019 4028 
Q 2947 3713 2884 3491 
L 1913 0 
L 1294 0 
z
" transform="scale(0.015625)"/>
       <path id="ArialMT-68" d="M 422 0 
L 422 4581 
L 984 4581 
L 984 2938 
Q 1378 3394 1978 3394 
Q 2347 3394 2619 3248 
Q 2891 3103 3008 2847 
Q 3125 2591 3125 2103 
L 3125 0 
L 2563 0 
L 2563 2103 
Q 2563 2525 2380 2717 
Q 2197 2909 1863 2909 
Q 1613 2909 1392 2779 
Q 1172 2650 1078 2428 
Q 984 2206 984 1816 
L 984 0 
L 422 0 
z
" transform="scale(0.015625)"/>
      </defs>
      <use xlink:href="#ArialMT-46"/>
      <use xlink:href="#ArialMT-65" x="61.083984"/>
      <use xlink:href="#ArialMT-6d" x="116.699219"/>
      <use xlink:href="#ArialMT-61" x="200"/>
      <use xlink:href="#ArialMT-6c" x="255.615234"/>
      <use xlink:href="#ArialMT-65" x="277.832031"/>
      <use xlink:href="#ArialMT-2d" x="333.447266"/>
      <use xlink:href="#ArialMT-57" x="366.748047"/>
      <use xlink:href="#ArialMT-68" x="461.132812"/>
      <use xlink:href="#ArialMT-69" x="516.748047"/>
      <use xlink:href="#ArialMT-74" x="538.964844"/>
      <use xlink:href="#ArialMT-65" x="566.748047"/>
     </g>
    </g>
   </g>
  </g>
 </g>
 <defs>
  <clipPath id="pe841f5357d">
   <rect x="43.710547" y="12.120996" width="357.12" height="266.112"/>
  </clipPath>
 </defs>
</svg>
